{"title":"Stonehearst Asylum (2014) Web-DL.x264.DAZA.mp4","uid":11335761,"size":1017665347,"categoryP":"video","categoryS":"hd___movies","magnet":"?xt=urn:btih:2638fadbb86ae780408b192ca0c84b20586397ba&amp;dn=Stonehearst+Asylum+%282014%29+Web-DL.x264.DAZA.mp4&amp;tr=udp%3A%2F%2Ftracker.openbittorrent.com%3A80&amp;tr=udp%3A%2F%2Fopen.demonii.com%3A1337&amp;tr=udp%3A%2F%2Ftracker.coppersurfer.tk%3A6969&amp;tr=udp%3A%2F%2Fexodus.desync.com%3A6969","seeders":1,"leechers":0,"uploader":"hardcore74","files":-1,"time":1414728399,"description":"Format                                   : MPEG-4\nFormat profile                           : Base Media / Version 2\nCodec ID                                 : mp42\nFile size                                : 971 MiB\nDuration                                 : 1h 52mn\nOverall bit rate mode                    : Variable\nOverall bit rate                         : 1 204 Kbps\nMovie name                               : Stonehearst Asylum (2014)Web-DL.x264.DAZA,mp4\nEncoded date                             : UTC 2014-10-31 01:32:21\nTagged date                              : UTC 2014-10-31 02:45:00\nWriting application                      : HandBrake 0.9.9 2013052900\n\nVideo\nID                                       : 1\nFormat                                   : AVC\nFormat/Info                              : Advanced Video Codec\nFormat profile                           : &lt;a class=&quot;__cf_email__&quot; href=&quot;/cdn-cgi/l/email-protection&quot; data-cfemail=&quot;f9b4989097b9b5cdd7c8&quot;&gt;[email&amp;#160;protected]&lt;/a&gt;&lt;script cf-hash='f9e31' type=&quot;text/javascript&quot;&gt;\n/* &lt;![CDATA[ */!function(){try{var t=&quot;currentScript&quot;in document?document.currentScript:function(){for(var t=document.getElementsByTagName(&quot;script&quot;),e=t.length;e--;)if(t[e].getAttribute(&quot;cf-hash&quot;))return t[e]}();if(t&amp;&amp;t.previousSibling){var e,r,n,i,c=t.previousSibling,a=c.getAttribute(&quot;data-cfemail&quot;);if(a){for(e=&quot;&quot;,r=parseInt(a.substr(0,2),16),n=2;a.length-n;n+=2)i=parseInt(a.substr(n,2),16)^r,e+=String.fromCharCode(i);e=document.createTextNode(e),c.parentNode.replaceChild(e,c)}}}catch(u){}}();/* ]]&gt; */&lt;/script&gt;\nFormat settings, CABAC                   : Yes\nFormat settings, ReFrames                : 4 frames\nCodec ID                                 : avc1\nCodec ID/Info                            : Advanced Video Coding\nDuration                                 : 1h 52mn\nBit rate                                 : 1 006 Kbps\nWidth                                    : 1 280 pixels\nHeight                                   : 530 pixels\nDisplay aspect ratio                     : 2.40:1\nFrame rate mode                          : Variable\nFrame rate                               : 23.976 fps\nMinimum frame rate                       : 23.810 fps\nMaximum frame rate                       : 24.390 fps\nColor space                              : YUV\nChroma subsampling                       : 4:2:0\nBit depth                                : 8 bits\nScan type                                : Progressive\nBits/(Pixel*Frame)                       : 0.062\nStream size                              : 811 MiB (84%)\nWriting library                          : x264 core 130 r2273 b3065e6\nEncoded date                             : UTC 2014-10-31 01:32:21\nTagged date                              : UTC 2014-10-31 02:44:54\nColor primaries                          : BT.709\nTransfer characteristics                 : BT.709\nMatrix coefficients                      : BT.709\n\nAudio\nID                                       : 2\nFormat                                   : AAC\nFormat/Info                              : Advanced Audio Codec\nFormat profile                           : LC\nCodec ID                                 : 40\nDuration                                 : 1h 52mn\nBit rate mode                            : Variable\nBit rate                                 : 192 Kbps\nMaximum bit rate                         : 298 Kbps\nChannel(s)                               : 6 channels\nChannel positions                        : Front: L C R, Side: L R, LFE\nSampling rate                            : 48.0 KHz\nCompression mode                         : Lossy\nStream size                              : 155 MiB (16%)\nLanguage                                 : English\nEncoded date                             : UTC 2014-10-31 01:32:21\nTagged date                              : UTC 2014-10-31 02:44:53\n\nMenu\nID                                       : 3\nCodec ID                                 : text\nDuration                                 : 1h 52mn\nEncoded date                             : UTC 2014-10-31 01:32:21\nTagged date                              : UTC 2014-10-31 02:44:54\nBit rate mode                            : VBR","torrent":{"xt":"urn:btih:2638fadbb86ae780408b192ca0c84b20586397ba","amp;dn":"Stonehearst+Asylum+%282014%29+Web-DL.x264.DAZA.mp4","amp;tr":["udp%3A%2F%2Ftracker.openbittorrent.com%3A80","udp%3A%2F%2Fopen.demonii.com%3A1337","udp%3A%2F%2Ftracker.coppersurfer.tk%3A6969","udp%3A%2F%2Fexodus.desync.com%3A6969"],"infoHash":"2638fadbb86ae780408b192ca0c84b20586397ba","infoHashBuffer":{"type":"Buffer","data":[38,56,250,219,184,106,231,128,64,139,25,44,160,200,75,32,88,99,151,186]},"announce":[],"urlList":[]}}